<svg width="154" height="51" viewBox="0 0 154 51" fill="none" xmlns="http://www.w3.org/2000/svg">
<path d="M22.912 4.304V10.88H9.184V17.984H19.456V24.368H9.184V38H0.976V4.304H22.912ZM37.018 38.384C34.394 38.384 32.026 37.824 29.914 36.704C27.834 35.584 26.186 33.984 24.97 31.904C23.786 29.824 23.194 27.392 23.194 24.608C23.194 21.856 23.802 19.44 25.018 17.36C26.234 15.248 27.898 13.632 30.01 12.512C32.122 11.392 34.49 10.832 37.114 10.832C39.738 10.832 42.106 11.392 44.218 12.512C46.33 13.632 47.994 15.248 49.21 17.36C50.426 19.44 51.034 21.856 51.034 24.608C51.034 27.36 50.41 29.792 49.162 31.904C47.946 33.984 46.266 35.584 44.122 36.704C42.01 37.824 39.642 38.384 37.018 38.384ZM37.018 31.28C38.586 31.28 39.914 30.704 41.002 29.552C42.122 28.4 42.682 26.752 42.682 24.608C42.682 22.464 42.138 20.816 41.05 19.664C39.994 18.512 38.682 17.936 37.114 17.936C35.514 17.936 34.186 18.512 33.13 19.664C32.074 20.784 31.546 22.432 31.546 24.608C31.546 26.752 32.058 28.4 33.082 29.552C34.138 30.704 35.45 31.28 37.018 31.28ZM65.1805 38.384C62.5565 38.384 60.1885 37.824 58.0765 36.704C55.9965 35.584 54.3485 33.984 53.1325 31.904C51.9485 29.824 51.3565 27.392 51.3565 24.608C51.3565 21.856 51.9645 19.44 53.1805 17.36C54.3965 15.248 56.0605 13.632 58.1725 12.512C60.2845 11.392 62.6525 10.832 65.2765 10.832C67.9005 10.832 70.2685 11.392 72.3805 12.512C74.4925 13.632 76.1565 15.248 77.3725 17.36C78.5885 19.44 79.1965 21.856 79.1965 24.608C79.1965 27.36 78.5725 29.792 77.3245 31.904C76.1085 33.984 74.4285 35.584 72.2845 36.704C70.1725 37.824 67.8045 38.384 65.1805 38.384ZM65.1805 31.28C66.7485 31.28 68.0765 30.704 69.1645 29.552C70.2845 28.4 70.8445 26.752 70.8445 24.608C70.8445 22.464 70.3005 20.816 69.2125 19.664C68.1565 18.512 66.8445 17.936 65.2765 17.936C63.6765 17.936 62.3485 18.512 61.2925 19.664C60.2365 20.784 59.7085 22.432 59.7085 24.608C59.7085 26.752 60.2205 28.4 61.2445 29.552C62.3005 30.704 63.6125 31.28 65.1805 31.28ZM79.519 24.56C79.519 21.808 80.031 19.392 81.055 17.312C82.111 15.232 83.535 13.632 85.327 12.512C87.119 11.392 89.119 10.832 91.327 10.832C93.087 10.832 94.687 11.2 96.127 11.936C97.599 12.672 98.751 13.664 99.583 14.912V2.48H107.791V38H99.583V34.16C98.815 35.44 97.711 36.464 96.271 37.232C94.863 38 93.215 38.384 91.327 38.384C89.119 38.384 87.119 37.824 85.327 36.704C83.535 35.552 82.111 33.936 81.055 31.856C80.031 29.744 79.519 27.312 79.519 24.56ZM99.583 24.608C99.583 22.56 99.007 20.944 97.855 19.76C96.735 18.576 95.359 17.984 93.727 17.984C92.095 17.984 90.703 18.576 89.551 19.76C88.431 20.912 87.871 22.512 87.871 24.56C87.871 26.608 88.431 28.24 89.551 29.456C90.703 30.64 92.095 31.232 93.727 31.232C95.359 31.232 96.735 30.64 97.855 29.456C99.007 28.272 99.583 26.656 99.583 24.608ZM124.769 18.032H120.353V38H112.145V18.032H109.169V11.216H112.145V10.448C112.145 7.152 113.089 4.656 114.977 2.96C116.865 1.232 119.633 0.367998 123.281 0.367998C123.889 0.367998 124.337 0.383998 124.625 0.415998V7.376C123.057 7.28 121.953 7.504 121.313 8.048C120.673 8.592 120.353 9.568 120.353 10.976V11.216H124.769V18.032ZM153.586 11.216L136.786 50.72H127.954L134.098 37.088L123.202 11.216H132.37L138.562 27.968L144.706 11.216H153.586Z" fill="#333333"/>
</svg>
